<svg xmlns="http://www.w3.org/2000/svg" width="1254" height="836" viewBox="0 0 1254 836">
<g>
<path d="M 0.00 0.00 L 1254.00 0.00 L 1254.00 836.00 L 0.00 836.00 ZM 603.50 574.30 C612.85,579.52 620.84,583.83 621.25,583.89 C621.66,583.89 622.00,509.04 622.00,417.50 L 622.00 251.00 L 570.43 251.00 C536.86,251.00 518.19,251.36 516.94,252.03 C514.05,253.58 511.84,258.64 505.19,279.00 C501.87,289.17 498.85,298.29 498.47,299.25 C497.83,300.90 499.91,301.00 533.89,301.00 L 570.00 301.00 L 570.00 494.14 L 560.75 489.18 C516.28,465.37 485.38,448.66 484.76,448.09 C484.10,447.50 485.11,442.08 491.38,412.51 C492.19,408.67 492.74,405.41 492.60,405.27 C492.32,404.98 444.52,425.94 439.13,428.72 C437.27,429.67 435.17,431.36 434.45,432.47 C432.84,434.97 424.72,473.08 425.17,476.00 C425.43,477.64 432.60,481.89 457.50,495.16 C497.18,516.32 580.72,561.60 603.50,574.30 ZM 638.33 576.75 C639.94,579.31 640.03,579.21 658.64,555.50 C675.86,533.56 687.08,516.43 732.02,443.50 C738.80,432.50 747.13,419.00 750.52,413.50 C793.92,343.26 847.00,254.19 847.00,251.61 C847.00,251.27 832.84,251.00 815.52,251.00 L 784.05 251.00 L 782.65 253.25 C781.88,254.49 777.00,262.70 771.80,271.50 C766.60,280.30 745.95,314.93 725.92,348.45 L 689.50 409.41 L 689.24 330.20 L 688.99 251.00 L 636.00 251.00 L 636.08 387.75 C636.17,522.30 636.78,574.28 638.33,576.75 Z" fill="rgb(15,23,39)"/>
<path d="M 638.33 576.75 C636.78,574.28 636.17,522.30 636.08,387.75 L 636.00 251.00 L 688.99 251.00 L 689.24 330.20 L 689.50 409.41 L 725.92 348.45 C745.95,314.93 766.60,280.30 771.80,271.50 C777.00,262.70 781.88,254.49 782.65,253.25 L 784.05 251.00 L 815.52 251.00 C832.84,251.00 847.00,251.27 847.00,251.61 C847.00,254.19 793.92,343.26 750.52,413.50 C747.13,419.00 738.80,432.50 732.02,443.50 C687.08,516.43 675.86,533.56 658.64,555.50 C640.03,579.21 639.94,579.31 638.33,576.75 Z" fill="rgb(62,133,211)"/>
<path d="M 603.50 574.30 C580.72,561.60 497.18,516.32 457.50,495.16 C432.60,481.89 425.43,477.64 425.17,476.00 C424.72,473.08 432.84,434.97 434.45,432.47 C435.17,431.36 437.27,429.67 439.13,428.72 C444.52,425.94 492.32,404.98 492.60,405.27 C492.74,405.41 492.19,408.67 491.38,412.51 C485.11,442.08 484.10,447.50 484.76,448.09 C485.38,448.66 516.28,465.37 560.75,489.18 L 570.00 494.14 L 570.00 397.57 L 570.00 301.00 L 533.89 301.00 C499.91,301.00 497.83,300.90 498.47,299.25 C498.85,298.29 501.87,289.17 505.19,279.00 C511.84,258.64 514.05,253.58 516.94,252.03 C518.19,251.36 536.86,251.00 570.43,251.00 L 622.00 251.00 L 622.00 417.50 C622.00,509.08 621.66,583.95 621.25,583.89 C620.84,583.83 612.85,579.52 603.50,574.30 Z" fill="rgb(253,253,253)"/>
</g>
</svg>